# File created by Blade
# Date/Time:  Tue Apr 07 20:45:29 2015
#---------------------------------------------------------
:version 1.10
:name HOM
:units
  mass 1.0
  length 1.000000
  angle deg
:documentation
     Acclaim Skeleton File
:root
   axis xyz
   order TX TY TZ RX RY RZ
   position 0.000000 0.000000 0.000000
   orientation 0 0 0
:bonedata
   begin
      id 1
      name Spine_dum
      direction 0.000000 1.000000 0.000000
      length 4.885285
      axis 0.0 0.0 0.0 xyz
   end
   begin
      id 2
      name LeftUpLeg_dum
      direction 1.000000 0.000000 0.000000
      length 2.672193
      axis 0.0 0.0 0.0 xyz
   end
   begin
      id 3
      name RightUpLeg_dum
      direction -1.000000 0.000000 0.000000
      length 2.672193
      axis 0.0 0.0 0.0 xyz
   end
   begin
      id 4
      name Spine
      direction 0.000000 1.000000 0.000000
      length 0.000000
      axis 0.0 0.0 0.0 xyz
      dof rx ry rz
   end
   begin
      id 5
      name Spine_dum1
      direction 0.000000 1.000000 0.000000
      length 16.494159
      axis 0.0 0.0 0.0 xyz
   end
   begin
      id 6
      name Spine_dum2
      direction 0.000000 1.000000 0.000000
      length 10.663448
      axis 0.0 0.0 0.0 xyz
   end
   begin
      id 7
      name Spine_dum3
      direction 0.000000 1.000000 0.000000
      length 10.663448
      axis 0.0 0.0 0.0 xyz
   end
   begin
      id 8
      name Head
      direction 0.000000 1.000000 0.000000
      length 4.527550
      axis 0.0 0.0 0.0 xyz
      dof rx ry rz
   end
   begin
      id 9
      name LeftShoulder
      direction 1.000000 0.000000 0.000000
      length 7.531907
      axis 0.0 0.0 -90.0 xyz
      dof rx ry rz
   end
   begin
      id 10
      name LeftArm
      direction 1.000000 0.000000 0.000000
      length 10.229199
      axis 0.0 0.0 -90.0 xyz
      dof rx ry rz
   end
   begin
      id 11
      name LeftForeArm
      direction 1.000000 0.000000 0.000000
      length 8.673495
      axis 0.0 0.0 -90.0 xyz
      dof ry rz rx
   end
   begin
      id 12
      name LeftHand
      direction 0.000000 0.000000 0.000000
      length 0.000000
      axis 0.0 0.0 -90.0 xyz
      dof rx ry rz
   end
   begin
      id 13
      name LeftHand_dum1
      direction 0.000000 0.000000 0.000000
      length 0.000000
      axis 0.0 0.0 -90.0 xyz
   end
   begin
      id 14
      name LeftHand_dum2
      direction 1.000000 0.000000 0.000000
      length 3.937000
      axis 0.0 0.0 -90.0 xyz
   end
   begin
      id 15
      name LeftHandThumb1
      direction 0.000000 0.000000 1.000000
      length 3.937000
      axis 0.0 0.0 -90.0 xyz
      dof rx rz ry
   end
   begin
      id 16
      name RightShoulder
      direction -1.000000 0.000000 0.000000
      length 7.531907
      axis 0.0 0.0 90.0 xyz
      dof rx ry rz
   end
   begin
      id 17
      name RightArm
      direction -1.000000 0.000000 0.000000
      length 10.229199
      axis 0.0 0.0 90.0 xyz
      dof rx ry rz
   end
   begin
      id 18
      name RightForeArm
      direction -1.000000 0.000000 0.000000
      length 8.673495
      axis 0.0 0.0 90.0 xyz
      dof ry rz rx
   end
   begin
      id 19
      name RightHand
      direction 0.000000 0.000000 0.000000
      length 0.000000
      axis 0.0 0.0 90.0 xyz
      dof rx ry rz
   end
   begin
      id 20
      name RightHand_dum1
      direction 0.000000 0.000000 0.000000
      length 0.000000
      axis 0.0 0.0 90.0 xyz
   end
   begin
      id 21
      name RightHand_dum2
      direction -1.000000 0.000000 0.000000
      length 3.937000
      axis 0.0 0.0 90.0 xyz
   end
   begin
      id 22
      name RightHandThumb1
      direction 0.000000 0.000000 1.000000
      length 3.937000
      axis 0.0 0.0 90.0 xyz
      dof rx rz ry
   end
   begin
      id 23
      name LeftUpLeg
      direction 0.000000 -1.000000 0.000000
      length 16.263388
      axis 0.0 0.0 0.0 xyz
      dof rx ry rz
   end
   begin
      id 24
      name LeftLeg
      direction 0.000000 -1.000000 0.000000
      length 14.328163
      axis 0.0 0.0 0.0 xyz
      dof rx ry rz
   end
   begin
      id 25
      name LeftFoot
      direction 0.000000 -0.258819 0.965926
      length 5.031290
      axis 15.0 0.0 0.0 xyz
      dof rx ry rz
   end
   begin
      id 26
      name LeftToeBase
      direction 0.000000 0.000000 1.000000
      length 2.952750
      axis 0.0 0.0 0.0 xyz
      dof rx ry rz
   end
   begin
      id 27
      name RightUpLeg
      direction 0.000000 -1.000000 0.000000
      length 16.263388
      axis 0.0 0.0 0.0 xyz
      dof rx ry rz
   end
   begin
      id 28
      name RightLeg
      direction 0.000000 -1.000000 0.000000
      length 14.328163
      axis 0.0 0.0 0.0 xyz
      dof rx ry rz
   end
   begin
      id 29
      name RightFoot
      direction 0.000000 -0.258819 0.965926
      length 5.031290
      axis 15.0 0.0 0.0 xyz
      dof rx ry rz
   end
   begin
      id 30
      name RightToeBase
      direction 0.000000 0.000000 1.000000
      length 2.952750
      axis 0.0 0.0 0.0 xyz
      dof rx ry rz
   end
:hierarchy
   begin
      root Spine_dum LeftUpLeg_dum RightUpLeg_dum
      Spine_dum Spine
      LeftUpLeg_dum LeftUpLeg
      RightUpLeg_dum RightUpLeg
      Spine Spine_dum1 Spine_dum2 Spine_dum3
      Spine_dum1 Head
      Spine_dum2 LeftShoulder
      Spine_dum3 RightShoulder
      LeftShoulder LeftArm
      LeftArm LeftForeArm
      LeftForeArm LeftHand
      LeftHand LeftHand_dum1 LeftHand_dum2
      LeftHand_dum1 LeftHandThumb1
      RightShoulder RightArm
      RightArm RightForeArm
      RightForeArm RightHand
      RightHand RightHand_dum1 RightHand_dum2
      RightHand_dum1 RightHandThumb1
      LeftUpLeg LeftLeg
      LeftLeg LeftFoot
      LeftFoot LeftToeBase
      RightUpLeg RightLeg
      RightLeg RightFoot
      RightFoot RightToeBase
   end

# File created by Blade
# Date/Time:  Tue Apr 07 20:45:22 2015
# Frame Rate: 120.000 fps
#------------------------------------------------------
:FULLY-SPECIFIED
:DEGREES
1
root 1.012203 32.929303 -2.234360 7.276510 0.597411 -1.842885
Spine -11.247522 -6.412235 0.794948
Head 17.973627 0.444931 -0.747876
LeftShoulder -20.453537 39.641472 21.011042
LeftArm 58.731295 -57.791449 -58.774523
LeftForeArm 9.050465 -0.000000 -2.995363
LeftHand 3.072714 0.000000 3.627728
LeftHandThumb1 -26.253704 0.000000 33.147579
RightShoulder -7.376558 0.883561 -30.443658
RightArm 12.953492 14.803792 40.786739
RightForeArm -11.273081 -0.000000 1.659629
RightHand 2.412658 -0.000000 0.988351
RightHandThumb1 -24.326973 -0.000000 -32.862282
LeftUpLeg 0.653940 -3.885296 1.396952
LeftLeg -5.771280 -0.000000 0.000000
LeftFoot -3.309819 9.897302 -15.798075
LeftToeBase -10.602794 -0.000000 0.000000
RightUpLeg -1.420566 -0.663235 3.079107
RightLeg -3.353837 -0.000000 0.000000
RightFoot -5.362935 -6.825996 8.688048
RightToeBase -0.948019 -0.000000 0.000000
2
root 1.011401 32.929151 -2.234060 7.278552 0.580090 -1.842579
Spine -11.251454 -6.418631 0.790301
Head 17.975164 0.431985 -0.730476
LeftShoulder -20.457028 39.637249 21.029615
LeftArm 58.720149 -57.778569 -58.757738
LeftForeArm 9.077764 -0.000000 -3.001729
LeftHand 3.041011 0.000000 3.626719
LeftHandThumb1 -26.253704 0.000000 33.147579
RightShoulder -7.379960 0.902586 -30.462691
RightArm 12.958571 14.789831 40.802930
RightForeArm -11.242248 -0.000000 1.661872
RightHand 2.411949 -0.000000 1.008763
RightHandThumb1 -24.326973 -0.000000 -32.862282
LeftUpLeg 0.666098 -3.872142 1.389870
LeftLeg -5.801071 -0.000000 0.000000
LeftFoot -3.262541 9.890011 -15.999618
LeftToeBase -10.887059 -0.000000 0.000000
RightUpLeg -1.419563 -0.642890 3.076971
RightLeg -3.359813 -0.000000 0.000000
RightFoot -5.369242 -6.824412 8.695251
RightToeBase -0.914568 -0.000000 0.000000
3
root 1.012591 32.929217 -2.233262 7.275189 0.558580 -1.835345
Spine -11.252642 -6.426459 0.788013
Head 17.991801 0.435600 -0.732532
LeftShoulder -20.465241 39.650102 21.024611
LeftArm 58.763287 -57.797142 -58.797858
LeftForeArm 9.105137 0.000000 -3.004306
LeftHand 3.036017 -0.000000 3.590596
LeftHandThumb1 -26.253704 0.000000 33.147579
RightShoulder -7.364107 0.916611 -30.472744
RightArm 12.960122 14.798681 40.791798
RightForeArm -11.275651 -0.000000 1.652053
RightHand 2.426240 0.000000 0.989541
RightHandThumb1 -24.326973 -0.000000 -32.862282
LeftUpLeg 0.661223 -3.874610 1.381367
LeftLeg -5.771881 -0.000000 0.000000
LeftFoot -3.322124 9.931748 -15.863804
LeftToeBase -10.644638 -0.000000 0.000000
RightUpLeg -1.415054 -0.634450 3.065039
RightLeg -3.362078 -0.000000 0.000000
RightFoot -5.355493 -6.819580 8.695971
RightToeBase -0.975589 -0.000000 0.000000
4
root 1.010309 32.928910 -2.232604 7.272318 0.555657 -1.849667
Spine -11.250050 -6.428052 0.795361
Head 17.988907 0.414059 -0.718803
LeftShoulder -20.457101 39.655654 21.045647
LeftArm 58.807610 -57.801256 -58.834526
LeftForeArm 9.144410 -0.000000 -3.009797
LeftHand 2.986186 -0.000000 3.734319
LeftHandThumb1 -26.253704 0.000000 33.147579
RightShoulder -7.376912 0.909634 -30.475794
RightArm 12.979846 14.781595 40.781728
RightForeArm -11.268133 -0.000000 1.633760
RightHand 2.414516 0.000000 0.996626
RightHandThumb1 -24.326973 -0.000000 -32.862282
LeftUpLeg 0.673953 -3.850243 1.399676
LeftLeg -5.791328 -0.000000 0.000000
LeftFoot -3.281551 9.867253 -15.960975
LeftToeBase -10.840360 -0.000000 0.000000
RightUpLeg -1.409326 -0.637250 3.084167
RightLeg -3.365191 -0.000000 0.000000
RightFoot -5.356207 -6.814156 8.682405
RightToeBase -0.937123 -0.000000 0.000000
5
root 1.010779 32.929100 -2.231369 7.272995 0.536189 -1.849174
Spine -11.257138 -6.428852 0.797895
Head 18.000459 0.388095 -0.719176
LeftShoulder -20.451047 39.642162 21.057739
LeftArm 58.814882 -57.813563 -58.840149
LeftForeArm 9.117212 -0.000000 -3.035071
LeftHand 3.007531 -0.000000 3.737096
LeftHandThumb1 -26.253704 0.000000 33.147579
RightShoulder -7.363613 0.922450 -30.489848
RightArm 12.966122 14.766070 40.766885
RightForeArm -11.312602 -0.000000 1.639889
RightHand 2.390146 -0.000000 1.049260
RightHandThumb1 -24.326973 -0.000000 -32.862282
LeftUpLeg 0.684083 -3.830345 1.389951
LeftLeg -5.805394 -0.000000 0.000000
LeftFoot -3.309674 9.930460 -15.820080
LeftToeBase -10.605547 -0.000000 0.000000
RightUpLeg -1.406703 -0.626571 3.079408
RightLeg -3.368360 -0.000000 0.000000
RightFoot -5.359093 -6.798358 8.686609
RightToeBase -0.922417 -0.000000 0.000000
6
root 1.010159 32.929138 -2.231337 7.272723 0.519384 -1.854143
Spine -11.256681 -6.421100 0.797411
Head 18.001210 0.359959 -0.696307
LeftShoulder -20.438355 39.631533 21.085434
LeftArm 58.811884 -57.812464 -58.842879
LeftForeArm 9.121041 -0.000000 -3.022901
LeftHand 3.003549 -0.000000 3.622457
LeftHandThumb1 -26.253704 0.000000 33.147579
RightShoulder -7.366542 0.932978 -30.494297
RightArm 12.965404 14.765987 40.750522
RightForeArm -11.348193 -0.000000 1.630168
RightHand 2.353781 -0.000000 1.121571
RightHandThumb1 -24.326973 -0.000000 -32.862282
LeftUpLeg 0.689265 -3.828785 1.393662
LeftLeg -5.811319 -0.000000 0.000000
LeftFoot -3.316241 9.953603 -15.829030
LeftToeBase -10.614281 -0.000000 0.000000
RightUpLeg -1.406795 -0.622623 3.084411
RightLeg -3.369108 -0.000000 0.000000
RightFoot -5.349152 -6.790719 8.695471
RightToeBase -0.937130 -0.000000 0.000000
